/* XPM */
static char *result[] = {
/* columns rows colors chars-per-pixel */
"64 64 241 2 ",
"   c #353535",
".  c #3D3D3D",
"X  c #2C551C",
"o  c #335C22",
"O  c #356227",
"+  c #4F4435",
"@  c #7C512D",
"#  c #7A5434",
"$  c #6C4C30",
"%  c #4F712F",
"&  c #697436",
"*  c #173866",
"=  c #1E3B60",
"-  c #403F40",
";  c #314B72",
":  c #444444",
">  c #4B4B4B",
",  c #494847",
"<  c #504F4E",
"1  c #5E5748",
"2  c #525252",
"3  c #5C5B59",
"4  c #5A5955",
"5  c #5A4E51",
"6  c #625B5A",
"7  c #675C48",
"8  c #5E664F",
"9  c #65645E",
"0  c #77745C",
"q  c #706B4F",
"w  c #696764",
"e  c #766968",
"r  c #76766B",
"t  c #767371",
"y  c #7B7775",
"u  c #6E726C",
"i  c #6D5F61",
"p  c #97542B",
"a  c #865B36",
"s  c #925932",
"d  c #894F2E",
"f  c #A75727",
"g  c #8D633C",
"h  c #856039",
"j  c #956234",
"k  c #94643D",
"l  c #9B693A",
"z  c #A7673C",
"x  c #A97839",
"c  c #B5773A",
"v  c #B2612C",
"b  c #AF4A1E",
"n  c #CE7238",
"m  c #EB7E2D",
"M  c #875759",
"N  c #8B6844",
"B  c #986B43",
"V  c #997347",
"C  c #8A7A5A",
"Z  c #9A7956",
"A  c #88714A",
"S  c #A67647",
"D  c #A97A4F",
"F  c #8E7671",
"G  c #AC7370",
"H  c #905765",
"J  c #CC7B5B",
"K  c #678936",
"L  c #748833",
"P  c #749234",
"I  c #698849",
"U  c #789051",
"Y  c #7C896C",
"T  c #8E8E33",
"R  c #B38B36",
"E  c #86A43C",
"W  c #C7953A",
"Q  c #E9863B",
"!  c #D3AD38",
"~  c #E1BB1F",
"^  c #9D8657",
"/  c #8B8F54",
"(  c #B48A49",
")  c #BA9547",
"_  c #AA8855",
"`  c #B68757",
"'  c #B59758",
"]  c #A78C4E",
"[  c #8BA842",
"{  c #ADAE47",
"}  c #988766",
"|  c #888778",
" . c #899476",
".. c #979677",
"X. c #8B8C6B",
"o. c #A68B65",
"O. c #BC8E61",
"+. c #B89968",
"@. c #A99877",
"#. c #B59B75",
"$. c #AB9769",
"%. c #98A973",
"&. c #B8A365",
"*. c #A8A37C",
"=. c #B7A577",
"-. c #A8B478",
";. c #C79745",
":. c #D49649",
">. c #C78B58",
",. c #C69656",
"<. c #D7945A",
"1. c #D38749",
"2. c #E6934B",
"3. c #E49A58",
"4. c #E58E4F",
"5. c #C8A347",
"6. c #C5A556",
"7. c #DCAC4B",
"8. c #E1AA48",
"9. c #E7A15C",
"0. c #CA9764",
"q. c #D39B67",
"w. c #CB9C76",
"e. c #E59E62",
"r. c #C8A968",
"t. c #D9B868",
"y. c #C7A87A",
"u. c #D9AA75",
"i. c #CCB379",
"p. c #DAB77B",
"a. c #D7A96A",
"s. c #E7A668",
"d. c #E5AC77",
"f. c #E4B276",
"g. c #E5B47B",
"h. c #E6B779",
"j. c #EDB16F",
"k. c #E4C67A",
"l. c #687783",
"z. c #8D7683",
"x. c #937B86",
"c. c #728881",
"v. c #8A8582",
"b. c #958689",
"n. c #989689",
"m. c #9B9B94",
"M. c #968995",
"N. c #A48C96",
"B. c #A79699",
"V. c #B49796",
"C. c #A78F8A",
"Z. c #98A387",
"A. c #9FAC90",
"S. c #A6A788",
"D. c #B7A887",
"F. c #AAB685",
"G. c #BABB86",
"H. c #A9A697",
"J. c #B8A997",
"K. c #ACB295",
"L. c #B7B597",
"P. c #B19BA4",
"I. c #BBABAB",
"U. c #B6A7A5",
"Y. c #BAB8A9",
"T. c #BFB5B3",
"R. c #ADB0A2",
"E. c #C28F99",
"W. c #C3949A",
"Q. c #C6AB86",
"!. c #D9AE83",
"~. c #CEBD8C",
"^. c #C7B589",
"/. c #D5B384",
"(. c #DBB483",
"). c #D2BE8B",
"_. c #D8BA87",
"`. c #C9BA96",
"'. c #D3BE92",
"]. c #DCBD93",
"[. c #D5BA97",
"{. c #E3B583",
"}. c #E3BB8C",
"|. c #E6BA87",
" X c #E3BD93",
".X c #E9BE95",
"XX c #EBB588",
"oX c #C3A8A6",
"OX c #C3B6AE",
"+X c #C8B8B6",
"@X c #D1B6B3",
"#X c #CB97A0",
"$X c #B7C59C",
"%X c #BBC6A9",
"&X c #BFD4B6",
"*X c #DCC28B",
"=X c #DAC386",
"-X c #CBC99B",
";X c #D2C293",
":X c #DBC292",
">X c #D7C49B",
",X c #C7CD8D",
"<X c #E5C789",
"1X c #E3C196",
"2X c #E5C59B",
"3X c #F0C69D",
"4X c #C6C7A8",
"5X c #D4C6A2",
"6X c #D5CAA6",
"7X c #DBCAA5",
"8X c #DDCEAB",
"9X c #D9C6A5",
"0X c #DED1AD",
"qX c #D7D0AB",
"wX c #C4CBB4",
"eX c #CACDB5",
"rX c #C9C8B9",
"tX c #D4C8BA",
"yX c #C9D2B9",
"uX c #DCD5B6",
"iX c #E4CBA7",
"pX c #E2D1AD",
"aX c #E9D2AE",
"sX c #E4D6B5",
"dX c #E6D8B6",
"fX c #E4D7B9",
"gX c #E6DABB",
"hX c #EADBBB",
"jX c #F1CAA2",
"kX c #D6BCC3",
"lX c #D9CDC3",
"zX c #D5D9C4",
"xX c #DBDDC5",
"cX c #DCD5CA",
"vX c #DADECA",
"bX c #D7D5C6",
"nX c #CED5C1",
"mX c #E6DDC7",
"MX c #E1D9D2",
"NX c #DBE0CE",
"BX c #E7E2CE",
/* pixels */
"> : : > > : : : , : , , , : : > - : 2 > > > : : - 2 : - : : > : : > : : > > : : : : : > : > > > : : > > - > . > . > > - : - : 2 ",
"> > , : > > : : , : > : , : > , - > : : . : : > : > > : > : 2 > : : - > > > > > : > 2 : > : > > > > : 2 : 2 : : > > : - > > > 2 ",
"2 , > > : : : : . > > > - > . : > > : : > . : - : - > : > : : : : : : > - : > > , , > > - : : : > > > > : : > > - > > . : : > . ",
"> , , , - : > : > : : : > > : : > > > : > > > : : . - > > > : > > : : - : - > - > : 2 , > > : > : > > > 2 > - : > . > > 2 > : > ",
"> > , > 2 : : > - : , - - : > > , < : : : : . : : : : : : : > > > : > > , : : : , > : > : , > < > > > > : 2 > 2 > : : > > 2 : > ",
": < , > : : : . > > > 2 , - > > 2 > > : : > - - > : . > : 2 > : : : > > , > 2 , 2 : > > . , > > 2 : : : - < 2 > > 2 > > > : : > ",
", > , : > : - : : - : : - > > > , , > , > , > , > > . - - : > : > 2 > : > : : : - > - > > 2 , , > > > . > > > > 2 : > : 2 . > > ",
", > > , > > - : : > : , - > , : , , : : - - - - - : > : : : : - > : : : > : > . : : : : , > > : > : > > - > > 2 > > > > : > : : ",
": > 2 - > > > - > : < > : - > , : , , , , < > : > , : > > < , , : : : : : : : > : , < > > > < > > 2 > > > - > > > > . : : > : > ",
"- > > > - 2 - 2 2 , : : > 3 9 2 , , + , > > > : > > , , : > : 2 : > : : - : : > , , : : , < < , : > > > > : > > > : : > > > : - ",
"> < 2 > - > > > : : 2 - y eXtXqX@XL.n.| w < - : , > , > > 2 2 , : : : - , , : > , : - . : : > 2 2 : : > > > > - > > > > > : > > ",
": > > - > 2 > - > - : > Y.uXsXuX{.iXm.v.R.Y.J.F 4 > : - : > > : > : > : : : : , : , , > : , - : > 2 > > : > > > > : : : : : > : ",
"> > : > > < - 2 > 2 , u xXgX1X{.iX!.; * = = ; Q.u.!.D.F e 3 > > > > , , > : : : : : : < > < , - > > : : : > < > : : > > - - > > ",
": > > < > > - 5 : , : B.vXgXiXaX.XV.* * * = ; !.d.q.d.u.XX!.#.F 8 > , : , : : , : : : : - - : : : : > : 2 > : > : > > > > > : > ",
"> : > > < - o : , : 3 yXmXmXdXdXdXuXT.m.l.; F .X X}. X}.!.w. Xq._.y.o.C 4 < : : > > , , > > : : < > 2 > > : : > > > > < : > 2 2 ",
": - : > - > - , > : n.xXhXhXsXdXdXdXfXfXfXtX!.XX}.XX].Q.S.V.^./.=.O.i.p.=X~.+.Z 0 7 - : - , 2 , 2 > 2 : 2 > > : : > > > 2 > > > ",
"> > > : : > : 2 , 4 yXxXdXdXdXdXdXsXsXfXsXiXXX}.}. X X^.J.[.:X'.S.S.p.k.<X<Xj.e.9.3.3.>.Z A 7 5 , > > > > > > , + > 2 , > 2 > , ",
": 2 2 > > > > 2 < | zXgXdXdXdXdXdXsXsXsXsX}.|.}.5X[.].'.[.].1X:X_.=X*X*XD.>.n s.e.p z S <.3.9.:.^ g q % 8 9 9 < > > , , , > > > ",
"> > 2 > > > > > 3 wXxXhXdXdXdXfXdXdXsXdXaX{.{.].:X X].].;X'.].:X=X*X<X<XC.v J j.` s q.` S s.<.x 1.3.=X-X^.G.G.*.L.K.2 , > > < : ",
"> > > > 2 : > : v.zXgXhXdXsXfXsXsXsXsXfX1Xh.{.|._. X1X:X].-X'.*X=X<X2X<Xd.n 4.d.z l >.a.f.q.j D s z {.|.2X1XaXiXqXL.t 2 > > - , ",
"> 2 > 2 : 2 > 2 yXxXhXdXsXsXsXsXsXsXpXsX{.}.pX1X}.*X'.:X).^.~.;X=Xr.k.k.t.q.w.w.0.` a l O.B >.f.0.@ u.g.h.XXXXjXmXQ.sXX., : : > ",
"> > > 2 2 > 9 M.xXxXhXhXdXdXsXsXsXsXsXiXf.3XiX|.}.*X;X>X;XD.*.*.&.r.a.' ( D Z Z k # a l k j (.{.0.d <.3.j.jX3XmXmX[.mXZ.2 - > > ",
"> - : > 2 > M.NXzXgXdXhXdXdXsXsXsXsXsX|.j.1Xg.|.*X_.~.;X;XD.*.=.^ ^ ^ # a N D D D V V S s B ` (.' j s.2.Q XX3XmX9X[.mXv.> > , > ",
"> : > > > > R.NXmXhXhXhXdXsXsXsX0XsXsXg.f.g.f.|._.~.;X;X~.=.=.=.^ ^ g $ a N N a B V B k k S N ` D ` d.3.Q Q h.aX#.u.eXu > > 2 , ",
": - : > > > Y.NXgXhXhXgXfXfXdXsXsXsX1Xf.g.k.=X|.=X).;X;XD.&.=.$.^ ] A h ^ @.W R # N j c z l D D >.d.f.f.d.e.{.sX`  XK.9 > : : , ",
": : : - < 9 zXNXsX1XpXfXhXfXsXsXsXsXg.f.f.h.h._.).~.;X;X&.&.&.] ^ ] g # @.#.' R # B W 8.R j B a.3.e.s.d.d.s.2X8X` iXS.2 : > : , ",
"2 > > > - n.wXOXe.{.].u.y.fXuXsXdXiXh.g.h.f.p.k.i.,X~.~.&.&.&.] ] ] h V =.#.#.^ N x :.! c s ` g.3.2.m Q s.s.pX~.q.0XX.2 : > , , ",
": : : : 4 yXuXgXiXq.q.>Xo.5X$.`.7X Xh.XXf.f.p.7.~ t.^.i.&.&.' ] ( V h ] ! ;.+.Z V c 8.8.z a Q.:Xd.3.4.m 3.d.sX=.(.6Xw , < , : : ",
"- > > > M.zXuX6X#.#.^ J.=.^.@.o.o.a O.O.XXg._.t.~ i.,X^.=X~.y.^.y._ N ' ! ,.+.N S W 8.:.j N 9XuX7X8X>X Xd.}.0XO.1X`.r 2 , , 2 < ",
"- > > > &XNXuXhXfXfX>XD.mX^.+._ _ S S _ {.|._.;X).;Xi.t.k.=X^./.i._ N G o.+.o.N S 5.8.;.j Z 0XfX} =.^.8X0X0X7X#.2XL.v.2 : , , > ",
"-   > > w m.0X0X[.5XsX>XuXfX7X[.0.D B S ,./.'.;X;X;Xr.! ~ { ' ,.' C N N N N A B s R W x a #.uX`.+ 1 1 # D.0X~.D.dX*.m.2 - > , - ",
"> : : > : c.uXuX0X0X7X>XiX8X8XpX(.(.(.u.r.0.0.&.i.^.6.7.! ] ;.) @ a O.D D B N N @ z x j B `.fX/ + Y u + [.dX@...8X..I.< , : : , ",
"> : > , 2 n.NXNX%Xn.K.%XqXqXqX7Xp.u.p.g.|.1X}.(.r.0.) ) 5.) ;.R @ B l V S V k d s D B l D 8X7XC 1 Y 9 + [.0XC D.5X..rX2 > > . > ",
": , : , : B.NXvXwX&XZ.A.$X .%X%X-X`.i.i.u.u.p.g.].*X=Xt.6.) ;.R j s p j j k d $ N S S B #.uX7X..} 0 7 } sX8XA D.`.n.tX6 , > : , ",
": , , : . R.yX| %XA.wXnXzXvXnXyXyXwX%X&X4X4X-X,Xi.a.t.t.k.<Xk.k.,.n v f p p d @ k k S k y.8X8X8X0X5XL.L.hX5XC 9XD.J.tXu . - : : ",
"- , : . > U.eXr | H.| Y Z.A.Z.K.%X%X$X&X&XyX&XyX%X$X$X=.r.r.t.k.t.2.2.1.n n v p f p s j <.u./.].8X8XpXpXfX~.L.uXn.U.lXy , ,   : ",
": ,   - > nXnX| X.R.Y .. . . . . .8 Y 0 n.yXyX,X,X-X&X$X$X%X$X$X{ { W ;.2.2.s.3.Q v v f n <.u.a.u.p./.pXsX^.9XfXX.B.bXF , : , , ",
", : , : 2 bXrXH.|  .K. . .S.*...S.C  .0 K.wXyX4XeX-X%X%X{ R [  .U U P K T R ;.:.2.2.2.Q n >.<.>.q.q.q.8X8X#./.8X1 q lXm.. : , , ",
": , , : 9 NXNXNXNXbXzX%XnXwX%XL.K.%.....S.S.S.K.L.S.S.Z./ T L % I I I I I K K P T T R 1.4.3X2X'.u.0.!.8X7X+.].`.7 } tXB., : : , ",
"- : - > u cXcXbXbXvXbXzXzXzXbXuXyX4X4X$X4X4X%XL.K.S.X.X.U U U & %.U K I U Y U % O % K K T o.,X>X9X9X9X8X;Xy.9X^.S.tXlXU.> , : > ",
"> , > : c.cXV.V.U.C.V.OXb.V.U.b.B.B.x.v.R.R.T.rXrXrXOX4XOXL.L.L.4X%X-.[ E [ P K O O O X o K %.-.-.G.5X6X^.4X5XL.OXOX+X+X: > : : ",
"> 2 - > b.cXC.V.B.+Xb.x.tXb.H.z.B.z.z.z.x.z.I.T.T.+X0.>.`.L.J.Q.`.`.-.[ E E E [ P P L O X X o % U F.yXyX%XnX4XH.I.V.OXtX  : : , ",
": : , - B.MXlXV.G rXM.x.+Xb.I.M.B.x.x.z.x.x.M.N.I.oXW.P.V.W.x.p b G M M M F C q h & L L L P K & & U / %.$X%X%XY.U.U.I.lX2   , + ",
"> , : , Y.lXV.V.OXN.I.I.N.+XT.P.I.B.N.B.N.P.P.P.P.P.P.P.N.C.V.G >.G G G H G G H H x.C.} H.J.F.S.F.$XF.-.F.%X&XU.B.V.+XtX3 - , > ",
": : : , OXlXcXcXcXlXcXcXMXMXcXlXlX+X+X@XkXkX+X+X+XI.I.I.oXU.+XY.@X@XoX#X#XE.E.E.E.E.E.E.@XkXkXkX+XkXI.U.Y.T.T.U.I.+XrXlXt , - , ",
": : , . w t e w u t t y u y t y y t z.l.l.y t i w 3 3 3 9 e u w F e i 6 6 5 6 i e e e e F x.x.x.F b.x.b.v.y v.v.M.b.m.m.3 > - - ",
", - : :   . . : - , 2 > , - > >   : > > - -     - > : , , < > > . > >   . - , : - , , : -   - , - : , ,   : . . , . - : . > - : ",
"- : , > 2 > . . - : , < 2 > < > > , . - > - > . - : : > : + - : + , : : > : - . - : : : > - - - - > : : , . : > > : - , - - > > ",
"- , - , - : . , . : - - > > > > : > : : : . : : . 2 2 . : . : : :   : : : : > : > > : : . : : :   . : - > - : . > , - : - : . : ",
"- , , : > >   - , , - : - - , > : > : : : : . : . > 2 . > : : . : : : : : : - :   : . : 2 : 2 > - : : : , : > : - , > > . : > > ",
"> : 4 . . - - > - : : > : > > : > : . : : : . > : : : : : 2 2 3 : : : > : : - : > . : : 2 > : > : , : . , :   > . > : : 2 > > , ",
": > > : - > , > , , , < : > > : : : : > . . . : 2 : : > : > : :   . : :   2 . : - > : : . : : > : : . . - > : , - > : : 2 : : - ",
": > : : > , > , : : : - : : : > > > > 2   : : > . : . - > : : : : 2 : . . 2 > > : > : : : : : : : - : , - 2 - - : - 2 . > > 2 > ",
": . , - : - - , : > - . : . : - : . : >   : : > . : : . : . . . : > : 2 : : : : : : : : . > > - , , : - . , . : > : > : > > > > ",
", :   . , - - : , > : , > , , > > > : : : : : > : : : : > : : : . . - . . . . :   . 2 . 2 : : . . : - : : . - , . , : : : : > , ",
"> 2 : - . : > : , : - > 2 > : : > > : : : . . : : : . : : > : . . - > : : . . . 2 : : : : . : : - . : - : , : : : :     : - 2 > ",
": , 2 > . . > . - > : , : - > . : : > : . : . . : : : : : : : > > > > . : : > : > . : > > > : : : - . . - : : : > : . . : 2 : : ",
"> 2 : , . , > , - : : - : : > : : : : > > . : :     . > . > . : > : : : - 2 : - : : : : : . . : : . : - . : : , 2 : : :   2 . : ",
", > > > : > , > > : : : : : > > : : : : : : . . . : : :   > : : : . : > . > - : > . > : : > :   . - , 2 , . > , : : : > > > : > ",
": : > > : : . : : > > : >   : : > . - : : > . : : : . : . . > : - . . > :   > - 2 . : . : : - : > : - . > > - . : : > : : : > : ",
"> - , : , , > . : : : > > : . : : > : . : 2 : : : : > : : : : : > : - > : . : : : > 2 > . . : - , . - > .   , : : : : : . : > . ",
": 2 - 2 , . : , : : - :   : > . : : > . : > : : > : : > : : : . >   - : > > - : > - : > : : : - : - : > 2 , : : : : : > : > > 2 ",
"- : : > 2 : : : > : : : : - > : : : : : : : : : > > . : : > : : > . > : : . : - : : . : . . > . : : > > > : : > . : > : : : : , ",
": > : - : : > . - : > : : : . : : :   . : . . : : . : : : > > : > . : : > > :   . : : : : 2 - > . : : . , : , : . > > . > : : > "
};
