/* XPM */
static char *result[] = {
/* columns rows colors chars-per-pixel */
"64 64 92 1 ",
"  c #060606",
". c #0C0C0C",
"X c #141414",
"o c #1B1B1B",
"O c #201F1F",
"+ c #232323",
"@ c #282727",
"# c #262827",
"$ c #272928",
"% c #2B2C2B",
"& c #30302F",
"* c #2F3030",
"= c #333433",
"- c #363837",
"; c #383837",
": c #373938",
"> c #3C3D3C",
", c #3F403F",
"< c #41403F",
"1 c #3F4141",
"2 c #444444",
"3 c #484747",
"4 c #494847",
"5 c #484748",
"6 c #474B49",
"7 c #4B4B4B",
"8 c #504F4F",
"9 c #51514F",
"0 c #525252",
"q c #585756",
"w c #595857",
"e c #5B5B5A",
"r c #605F5E",
"t c #60605F",
"y c #636362",
"u c #686664",
"i c #696967",
"p c #6D6D6C",
"a c #706F6D",
"s c #71706F",
"d c #747473",
"f c #787673",
"g c #797977",
"h c #7C7C7B",
"j c #817F7C",
"k c #82817F",
"l c #848482",
"z c #8A8683",
"x c #8A8986",
"c c #8D8C8A",
"v c #908F8E",
"b c #998E89",
"n c #92918E",
"m c #959492",
"M c #989794",
"N c #999996",
"B c #9C9C9A",
"V c #A09F9C",
"C c #A2A19E",
"Z c #AAA29D",
"A c #A5A5A3",
"S c #A8A7A4",
"D c #AAA9A7",
"F c #ADADAA",
"G c #B0AFAC",
"H c #AFB0AF",
"J c #B2B1AE",
"K c #B5B4B2",
"L c #B8B7B4",
"P c #BBB9B6",
"I c #BEBDBA",
"U c #C1BFBC",
"Y c #C3C2BE",
"T c #C5C4C1",
"R c #C8C7C4",
"E c #CBCAC6",
"W c #CECDC9",
"Q c #D1CFCB",
"! c #D3D2CE",
"~ c #D6D5D1",
"^ c #D8D7D3",
"/ c #DBD9D5",
"( c #DEDDD9",
") c #E0DFDB",
"_ c #E2E1DD",
"` c #E6E5E1",
"' c #E8E7E3",
"] c #EAE9E6",
"[ c #EDECEA",
"{ c #F0EFEE",
"} c #F2F1EF",
"| c #F4F3F1",
/* pixels */
"722772322257322712075722172227722712772251263567225515:7>5222270",
"77727722327232722522,2272772270227277777558552876820687277227220",
"07772222>77516>557527:22227222252>57>,775577222277772175277>2252",
"7227127273227722775257752>,77727722>2252728575535577q71521777727",
"7757022722222277585225>22232227752577222775725688657287852277857",
"2757322>77703,77877227,,72>22852537728028257>5770223188760837527",
"577252,2212227775575755557>2,25278527552152580555751777885738157",
"775377122722,72255221,,2127252227322527>222256656575187757573523",
"2582272352772272275578727516776625222127158767875077717765>22527",
"2687182802225207551576727765272925211257751657053777727777277722",
"28055573228277271575552,5780ytiiyytwe886512262688517757276773377",
"6752787372275725txFUPDHIRQ~^(()_)))(//!WTLDTEKlw7887357555222272",
"552777778057528NERLSMxhpytw721>>:>>1270wyphcCKRRv862578722571157",
"2658652715222>Bg71>=*%$$$$$OOOXXXXOooOOO++$$%=,2lv71852657875557",
"7257511372520Nl=*%$**=*=>1-=%%$$$$$->,--:::-%%$%:ck5562765682700",
"317755255227kY:=$$>2**=-10581>-*==*5522,:::>>*$%-1Lw877255788685",
"77652520577yWt::*$15%$$$=56857578776651$$$%%71$%=:yF777427777877",
"57877778776HB=,:**6>%$$$*1277555872571>#%$%%61%*=:=Nh7q277537777",
"8787,=*%17dW>:>-$%,-$$###$>2766777765:###$$$>-%%=>>,Yp2-o+$=7782",
"7677$oOO18KB$:>*%@+@OOOOO+%-:>:--:---#+O##$#$#$%=::*cI0>XXo+8715",
"7q77***%5vW7*>>==***1**:1-:22,1111>,11:11>1>1>>:>,,:2THwOoO$7227",
"5772+O+@uI/AmSGHHKKIYIIYYTTTTTYYTTUTYTTTYYYTTYIPPLFBF/EJ+oO+>177",
"22570221NE]['```]]]'`]]][''''''`_`'']]]]]]]`'][]'``[[[TM02777777",
"5277575lT_[[[[{{}||{{|||||||||||[{|||||||||||||}}}[[]]_Ym0777785",
"212587m/``''']]]][][[[[[[[[[[[[[''[[[[[[[[[[[[]]''``_`__/D788215",
"52228h/__`''``````_`''''````'''`__````````'````_`__((_((((g75757",
"87570!/()(_`_(_())))((`(((((((((~//(((//((_(((/(///~///^//Ti2755",
"2257HQF~(/(``(((((/(((((///^^~~~WW~~~^^^//////^~~!~Q/~!!!KPRy522",
"27pRWVhsK^((_(/^~~~^~~^^~^/////FxY^/^/^~~~!Q~!!WQWW~!QEPd0hH/h08",
"17K(IxDc8yH/^//~///////(////////W~^////////^~~~~QWWEWId8gmdz(W06",
"2q(`Adw0lvep~_(///~~QWRTIKFFAVNNcmmNBCDHLIYREW!!Q!^/B0ll8=7f!`s1",
"2c_`be02wthxD^~p52:=*%$@++OooXX:=$XXooooO+@@$=:,5c~Whx00>>7yE`x5",
"7A'_z08wqyqymUVXXXXXXXoooooXX+e:01>XXXXXXXoX.XXXX>Wvd*155y0pR'B7",
"2H''hwyy:500gNJ+ooooooooooXXoq+OsX=:XXXoXooXoOO+OeTg80y7tkwpE`A5",
"5AQ_~Axp0pesujUg,780000q0eeway+:m++leeewq000dpq7:FvthpgitkmI((B5",
"1BU(_)(!Hvpu0yAU=*&*&$@$$%*$2w>itt*y%%%%$@+%-=$+pRp5iplAR/((`/m5",
"2vK~____((/^RDUQm@X..XX..   .2$. X5* ... ..   .>IQSI!~/(()(`'~M5",
"5xHQ_))____)))^)EAw*OooooooXXO=o.+>XXXXXoXXXO=pJQ^~~///((((`[Em5",
"2lFR))(()()_))))_/WUGBlae7>*+o@35=oo+*18eszNGUW~/(/((/(((((`'Rl5",
"1dDT//(()((())))___//QQRTUHFCmnnxcvmADHIYTEW^////^^^^^^^//()`Rg7",
"7yVUQLZVFKUYQ~^~((_(_)`)_^~!QEYYUURRQQ!^)))()(^^~~~QYYUJSCDT/Yp2",
"5yMUl>XXXO+&;4qrfcBFT~/(^^!~!!WWEWQQQ!~~~/^EKZmkpr82;%OXX.o0FIy3",
"10cD+X XXoXX.....XOoo;>2247778890777555<2>;@XXO.X...XXXoX...qP0,",
"78gnX .XXooooXX..X............. ..... .....   ...XooooXoX.  =J27",
"25ig.  XXXXXXXX.X o&+ooOOOOo+O+@OO+OOOooXoXXoO..XXOoooXXX.  +N;4",
"23ea  . ..X......+&..X.................. .X. X+X .X..X.XX . on&<",
"7>yMX.         .@oXXX..X..........X...X...X.X..oo          .>J-2",
"22z{Ai3=+OXoXXo%%=>23:=;;=;=&=%%***====;>><<82<;&OoXooOO&>qhQ_27",
"18O3dlvmNNmbvzvcgpuuiadfhkzzccmmmmczzkkgfaiuyeergzzzzvnvvxkfr&+4",
">7OXXX+OoXX&;<>=:52>>2>>:>2>72<>>2>51<><=>>1825,&&=;&XXXXOO.X.=4",
"72@oX..X.. <248272>223>42242578w<<<5<5<53>2<8725233>3X .......>4",
"35-oX.X...X324722225>>>372275722=<51>7<<<531125522>>>+ .....XO1<",
"252=@++O$+:222277570;31722>17223505>185737335<552<2717$+++%O&377",
"2>312223242:2>225225;137:22>2>>>5727<35<21221551743>>5>252535877",
"52=>31<273237224752<<23523223523>><>1>>2;;718<5<:2123>2223212275",
"7021>25222>7q723555221>222>2272:11555;>181232<132>2>232222;;2188",
"5787>27227>72>7>1<55>2>><2>32715755>2275512575<221>>122255>>2822",
"7727>2722222227232555>23&;12>5>55555281,2231311<2>2212237222-012",
"577722272522>277321552>>1523=5222>2715<27175<72;>138217522577527",
"2277222227727>225<152511<2>311731>>52;51812>221<53>>83>122722232",
"7222757>212272>2252>2831335<152<51172121<785>>213><7::222222137>",
"58102>225222>27:355;25527157221>7;1<57<<3>5723113135q72222273570",
"222503225223317212<5<25255<555<17<752>3153>2>>7>22377227>5722222",
"2722223>223222>25<>1<11221<155055<<3533;>2252825>5<>5222>77>7227"
};
