/* XPM */
static char *result[] = {
/* columns rows colors chars-per-pixel */
"64 64 68 1 ",
"  c gray31",
". c gray25",
"X c gray27",
"o c #4C4C4C",
"O c gray29",
"+ c #444444",
"@ c #464646",
"# c #434343",
"$ c #494949",
"% c #484848",
"& c #4B4B4B",
"* c #515151",
"= c #414141",
"- c gray26",
"; c gray30",
": c #4E4E4E",
"> c gray28",
", c #454445",
"< c #3A3A3A",
"1 c #3E3E3E",
"2 c gray33",
"3 c gray24",
"4 c #444344",
"5 c #535353",
"6 c gray32",
"7 c #3F3F3F",
"8 c #3C3C3C",
"9 c gray23",
"0 c #555555",
"q c #505050",
"w c #464546",
"e c #525152",
"r c #494849",
"t c #4B4A4B",
"y c #474647",
"u c #424142",
"i c #484748",
"p c #4C4B4C",
"a c #4E4D4E",
"s c #565656",
"d c #4D4C4D",
"f c #4A494A",
"g c #585858",
"h c #4F4E4F",
"j c gray37",
"k c #504F50",
"l c #373737",
"z c gray34",
"x c gray22",
"c c #393939",
"v c #5D5D5D",
"b c gray21",
"n c gray20",
"m c #3E3D3E",
"M c #353535",
"N c #343434",
"B c #5B5B5B",
"V c #414041",
"C c #434243",
"Z c #323232",
"A c #2C2C2C",
"S c #515051",
"D c gray19",
"F c #3C3B3C",
"G c #313131",
"H c #3D3C3D",
"J c #403F40",
"K c #3B3A3B",
/* pixels */
" .XoO+@X@#$$%X+&.@*o%&#@= X-+%;XXO=+:%X->#X$X$%o+,>O=$<O1>>##+@2",
"&$>+o X=>+O#>#&@-%X#34+$X$%#>>5X-@=%;&$o@% %$#oO&:+6@ %XoO47;@X6",
"*$;;-X@#3oO$=$8>%o>#$9@#@=&X>++@#.>o7-O;%%;O+XX@o$;$+-o@#O;8+@>.",
"o>X>-=%>O>-X;OX#O:%#%OO@X3.$&$+;&XX3>=$7OX:@&>@@@%;$0O=>@7O;:$#:",
"$&%o5+>O=@@+.-&:>q@#X@3#@7@X=>%;$#$$>+=X$;wO+>Oq:O>OX ;:%+X&& %O",
"X >O>-#9$$O:%7:% :;#+&.7;+3%@ %>%>&O>:e>:@%;3>o&6X@@=q;;@0;>O@X$",
"XO%@$-.-X=-@->$;@>o@&>O@%r8.1-%Xo $>O@>#=>-$;6@%@O%7$o$:6>O>q7$$",
"%o$%$o.X#t@>.;w-%%++=.==.yoX@X#uO@-#%+o3#+@#%OO@O>&$=:oo>o%o@%@>",
"#$o@XoX>$X:O+=O%+O$>O:O#$%#Oo:%&#>##+#+O=>:o$o;&%qo$O=O$$$8@-@+&",
"X&;&.:@ *>+#%>eO%>=%&O;#&&i>#t+qX$+#.+>o&>=X%:6%@&;o;#&:o$+%o;X=",
"@;e$w$&>X+quOOX$=@O$%>-=%$%&;:q%#@##O$+o$-=1X+$q*@=$O%O-$OOt>>&O",
"@o@+;;$X%+@%@;@>&%%$&#&X-@@=+&$Xo+$++=#>-@%o#@-Xo :;@%O$%>XX+#&+",
">%X;&;%O:6%$>+XO$#O+:3.#+X;=&oO:;O%$&-##+%+o&:@-o&@X>O $##>O==%o",
"@O%;$%X;-%++#9=7>+>@+>=$=>>%+;X+.#%@%#XX-X@X.+X#+#&#q$+O@;:;%O>&",
"O#%O%=.XOX%X:%Xo;7.X8@.@ro-$7#@o%$>OOo++$O%>o;#@;;:>$$+OO$%:#;*2",
">.$&%%-$O=Xo&&@;;>#=.=.r@6$qX%%$&>X;%@XX&@7+7Xq% $0> OO+>%o  Oo>",
"oo$X+>+2>Oo%#+y$>%%$=o>.O>@ >&>oqoo$$>$p@#o O%7&%O&%$O&%+& $;:a%",
">;:$:o&:&;@=O%%XX-o+XO#7$;>;o@%@;$+>;@%>X&$# O7@%OOo@OsX>$$O$&&o",
"oOqoo%%$%O#;$X$>%:Oo@X%>#$X+&@o$;&o$@%:#>@$:&:-@#.%>$##=->o@O&d-",
"o$f;5@O>>O>@#O&g=$+@$Ot>o>7>$>6-7:@+@%;$;+6%*&# oX@Oo++&%&&%o:.>",
"Os&2Xqo;>$:$;=$$@ohqqO&q+X::w@$;-&=qO$@=O>@O%% o$=X%%;:O%X;$@X+O",
"$OO  ;sX:*O$% y>;&+%;>$f>;:-%$$@=-1@;#$o@oO&$;$+*>%$j@oq-#*%:.o:",
"@-%&*@;:$:;X%6oq#+%&;%>&  6oX+%*kO, $OX:>@%@$%$7&-X>>2g$&%OooO@O",
">X$o>O>&*%a5&qo%#OO=&@7$@$OX:X&#oO+:>%>O%#:>>$&oXo*+X>>@OO&&$&q>",
"+.-%;O; X@X$$*OXo%&-X;>#>X>%..o=#9%=Xw>&$$O$:&&-$>q*O;O@#$>  ==$",
">@#-:;&;;&@$@>q,;>@+$@X.:%@-#+$.&$@@1>O$$%&$+w@>>& > ;>>1%$;@oXO",
" OOO7>;XoO1#Oy&>&&o$=@ $OO>X#l%.#%+>X@o@;@9%@:X$&@wO#O>%>o+:+&%>",
"X+%XX-$&s%-1w$o>5O+O1@&X%OoX=##7=#@$O>@+o8+7o$Xo+-#&#1>o;&>o;$+@",
"-&&%%o;O&=;X>&iOo>>>>>$$$o@#O7@@.OX-3r>>X$--6@%;&$qX@%XX>::*%O5:",
".O%O=k>+@%#@O%$&&-O@o%$O$-O%Xo0$%%@.& :O#@@&O8+&$$z--:X$%o%;=>>O",
"=x>;@7o#@X+l. #-%o=s+2qocx>6O=&@OeO= @-.X1-+$<++X@X=@&%%$&OO7O>-",
">X#;X@X.+<v>b<##8#*>&:>O&XOOO-1:#5>+&7+#=9-@3+%&=>#7 o%-@#&@>%->",
"o@O$qr+o3@+>+%.@O8&o@+#--<+X$&#%z6+.co@+1@><>.+<5O%1oi&@#.@+&%8&",
"=@@@>&.&;>$+@10.=+O$ &XO$9q5=#&@O$7%-O->$X>+%@%c>&O@n>;-&,73O;->",
"X@$#3$O2+x1=@q@1+.O.3>@@33-$oX%#7+OXOo+8;o$+@1>.1..@@oX@>Xo@37#,",
".%@cO<-+-=c%6>%#$799$->1@7:;%: o>O%&qq#q&&X7>Ooo==&o1%-@778+$@l@",
"+>c31.+=$X.+#<3X:7$=X9$7$@O@=X $@6p*o++#o>*s--++;%8@>=@#=$O->XO@",
">@@+$Xu8+%.X@7zooo.X+->8&O%*-m.>:=%:7o+.#-@-@3%$X%-1@=@=X69X3X%$",
"+>>+X%7&M.$X=$2> O.3=+17#o@o&X+%+Oo$X1=-@OX#33%>7+1Nb-831#.7>++%",
"=#. -=7%>XX$.X:3X&O@+q+X+o>6XO$#$sX;++1>#%+-7=9c.1+B9+=@19X7&@#o",
"o@o-:-M>+=$cX3+$:%-=#7+%@O&6+O7-O&cX%>$@=8XVXCqX.8=%8@9.5=31+OX-",
"o67Oo#%+X1f3+71%X#O$XZ:o%=-u@@;-X$=.O%%%.=#@7#%1=-->-@9=#%7=l#+>",
"=X$-%+=1%X@A5>O%#cc%q1.%oO#x.o-+#71@##37x7-.8$+=X3.c%l=$37@OOxO7",
"o@->zq#7+# O7S@;@6D+$8.>%>;#78>F==@XX-=>:<>>7$@7-17>>.1=1#6+>-$&",
"-XX%>+@-7oo#o+XO:;;==8.3.#7XX9#->$+$87=181=#=3+-@%##&&>X=#X@2@-%",
"+#><O;-7->@ %3@#=>q q@&-@@y#>X#3X3@>.c#@X#=@@>%-@XX%18$@;XXc@$.7",
"&7+-x<cX.@6Oi-ooc-OOX7cl.o@%@qOO1OOb1=%#7@%+3G.@-#%>x=3<O8--1%#-",
"-#$;* 83=+X;2o;:&@33X#&<.+=o+#7%=O@XO+73=##X&-7#=OXX%7#&&+.@7=>:",
"=$.>--1%9>..O&$;+o-@X7-X9q*8CH###Z>+=@&#&O@-7#X>l<+=O--3O>7#VX9>",
"7$@XOOl3$@.X..@%@&X.7+1==O57OX+J#@-%XX.>c=7# +*%8#+@>+OX7$Oo<X;%",
"&+s3<=.O7@Xo#&:+&+1X#@7>X#>#>:qg-C#$+#=-$7X= oX$+@X8>+Z$1O+X5;o>",
"@O&@-O%$@%>q@>o+@=+%181@;+>O%OX#Z3X=<;.u=>>.7X@O#@797o>%Jo-@ --.",
"#$#>&@;>##@-#+@;&$O5x@-O.X77O@->%q>17 oOXOX>@#++X.#O= -=-.58O:;O",
"X1@=#=->X$=c+8+7>=@@l-X$9=C8=371$&-;+XX-@=++7$&.%%X71%8#$#$@O:o&",
">XN9>---%%@@%@X$O$X7##@$#y->%%@@88-9198#lc&-;+%.9--XX1.>=>--+-O>",
"oqX73#$+>X1&s&+@$$%++71#@+.=w$.<.=O+><77q-->X7-+-8#7+@#+-@x<#.q;",
">%qO7.o=-;-%>1&9=7oi3X<7=-.@=$=O;$%9#X&@%7#Oo%--#.83V@-@$%73X X+",
"o:+@3@%@7X+=+@&#@X@%%8@@Dc.@1$3X%+@$#*=7#X>.@77.X7+-7#XX:X-+l5.#",
"@&o&-%X&>@XX7#$O@+.@@+33.>+@n$X+#9X&1@-Xo1$>-&+c77@ +.o@+#%&&O+o",
"@+&oX+=X#;>-O8X+$7.%X>7.=+3X7.o+-93$+<@.S.XK#+.-$@71;>.==+$#X=@X",
"o-@@>%O8@-+@r@3=X$X3+ @VXX$-.>+=$7=&X7+=-o %11X.w8=o3x++++#..>o9",
"X 7*@3#%%-.X8-o9@@w<+$>#;.$o+@=1&x7#$O=#>1X:#@=.@=>>0%-##+X&@%$5",
"#+#%*@+#%+X>@.$-=X->##>+$%8X>$#=&3OXX1+.>X1#19o<X+@:O+X;3%%@@#+>",
"-&##@@%.=#>X##.XX-c1-==-#.-#X% >$.#X$>@l7+#>X:-$8X-9>#@#8&o1$#@O"
};
