/* XPM */
static char *result[] = {
/* columns rows colors chars-per-pixel */
"64 64 239 2 ",
"   c #1B1411",
".  c #251B16",
"X  c #241E1B",
"o  c #2A1F1B",
"O  c #291E17",
"+  c #27221D",
"@  c #2C211B",
"#  c #2E2116",
"$  c #33241C",
"%  c #39261E",
"&  c #2E2522",
"*  c #2C2C2C",
"=  c #312623",
"-  c #352A26",
";  c #3B2B25",
":  c #362C29",
">  c #3B2E2A",
",  c #392621",
"<  c #3E312D",
"1  c #37322E",
"2  c #363535",
"3  c #3B3634",
"4  c #3D3D3D",
"5  c #3E3933",
"6  c #462E1E",
"7  c #4C2F1D",
"8  c #422D23",
"9  c #432E29",
"0  c #443125",
"q  c #41332E",
"w  c #4C342A",
"e  c #4D392C",
"r  c #4C3126",
"t  c #54352A",
"y  c #53392D",
"u  c #5C3C2B",
"i  c #583727",
"p  c #443531",
"a  c #453933",
"s  c #4A3B34",
"d  c #413F3D",
"f  c #4E3E38",
"g  c #4E3734",
"h  c #5C3C31",
"j  c #523F39",
"k  c #533C34",
"l  c #633C2C",
"z  c #643729",
"x  c #653E31",
"c  c #733F35",
"v  c #5A412C",
"b  c #4C403A",
"n  c #494139",
"m  c #5B4134",
"M  c #54443C",
"N  c #57453A",
"B  c #67432F",
"V  c #634334",
"C  c #6B4336",
"Z  c #664A34",
"A  c #6A4A35",
"S  c #684A3A",
"D  c #734635",
"F  c #724B36",
"G  c #7A4B34",
"H  c #754C3C",
"J  c #7B4D3C",
"K  c #794638",
"L  c #75533B",
"P  c #7C523D",
"I  c #7D573A",
"U  c #403F40",
"Y  c #444444",
"T  c #4A4645",
"R  c #484748",
"E  c #4B4B4B",
"W  c #4A4846",
"Q  c #554A44",
"!  c #5B4D45",
"~  c #524E4C",
"^  c #554B46",
"/  c #5D5047",
"(  c #52504D",
")  c #5C544D",
"_  c #5F584E",
"`  c #504F50",
"'  c #525252",
"]  c #5B5752",
"[  c #5D5955",
"{  c #5B5B5A",
"}  c #754D43",
"|  c #64554C",
" . c #6B554E",
".. c #795745",
"X. c #645B53",
"o. c #685C53",
"O. c #625E5B",
"+. c #6F564B",
"@. c #66615B",
"#. c #6C635B",
"$. c #6D6257",
"%. c #76665A",
"&. c #726A62",
"*. c #7D6E63",
"=. c #7B746D",
"-. c #6E6861",
";. c #844C3A",
":. c #8B4D3D",
">. c #854C36",
",. c #85553E",
"<. c #8D543D",
"1. c #865A3C",
"2. c #93553D",
"3. c #995E3F",
"4. c #944F3E",
"5. c #B45D3B",
"6. c #99613F",
"7. c #854E41",
"8. c #825343",
"9. c #8C5542",
"0. c #855B45",
"q. c #8B5A44",
"w. c #835849",
"e. c #945C44",
"r. c #9A5D43",
"t. c #935D4B",
"y. c #935543",
"u. c #8C5F53",
"i. c #A05B4B",
"p. c #8B6348",
"a. c #93634C",
"s. c #9C634C",
"d. c #9A6345",
"f. c #876758",
"g. c #9E6D54",
"h. c #956855",
"j. c #8B745A",
"k. c #9B745C",
"l. c #997659",
"z. c #9F724C",
"x. c #A3664C",
"c. c #A36B4C",
"v. c #AC6D4B",
"b. c #A66745",
"n. c #B26849",
"m. c #A6734C",
"M. c #A56C53",
"N. c #A96D53",
"B. c #A66856",
"V. c #B46D5A",
"C. c #AD7454",
"Z. c #A97859",
"A. c #B3745B",
"S. c #B57A5C",
"D. c #BE7C5B",
"F. c #B67856",
"G. c #B6704D",
"H. c #877769",
"J. c #997C6B",
"K. c #867B72",
"L. c #947E70",
"P. c #AC7B62",
"I. c #A57E64",
"U. c #BA7C63",
"Y. c #C26C4F",
"T. c #C87D5B",
"R. c #D27C5B",
"E. c #C5754F",
"W. c #C17967",
"Q. c #B48157",
"!. c #BC835A",
"~. c #BA895D",
"^. c #AD8159",
"/. c #8F806E",
"(. c #8F857B",
"). c #AA8667",
"_. c #B88765",
"`. c #BE926B",
"'. c #BA987A",
"]. c #A5897A",
"[. c #C5855B",
"{. c #C48A5C",
"}. c #CC8B5D",
"|. c #CB865D",
" X c #D08B5F",
".X c #C48361",
"XX c #C58C64",
"oX c #C58B6C",
"OX c #CC8B69",
"+X c #CB8964",
"@X c #D28C6C",
"#X c #D48B62",
"$X c #CC9266",
"%X c #C4956C",
"&X c #CB946B",
"*X c #CC9A6B",
"=X c #C59264",
"-X c #D29164",
";X c #D3936C",
":X c #D49A6C",
">X c #D99A6D",
",X c #DA956C",
"<X c #C58E72",
"1X c #CA9776",
"2X c #D29472",
"3X c #D59C71",
"4X c #DB9C74",
"5X c #D39C7B",
"6X c #DB9D7A",
"7X c #D69676",
"8X c #D08770",
"9X c #E49E7A",
"0X c #E29774",
"qX c #E08D69",
"wX c #DDA175",
"eX c #DDA37B",
"rX c #E2A47C",
"tX c #E4A97D",
"yX c #938C84",
"uX c #9F9890",
"iX c #A29C92",
"pX c #ADA39B",
"aX c #B4ADA2",
"sX c #B9B2A8",
"dX c #D8A386",
"fX c #E6AB83",
"gX c #E9AE86",
"hX c #E6AA89",
"jX c #EAB38B",
"kX c #EAB186",
"lX c #EFBB94",
"zX c #EDB898",
"xX c #F1BC99",
"cX c #C4BDB5",
"vX c #F3C09B",
"bX c #D0C8BF",
"nX c #F3C3A3",
"mX c #F8C6A5",
"MX c #F5F1E4",
/* pixels */
"E Y Y E E Y Y Y Y Y R R R Y Y E 4 Y ' ` Y E Y Y Y ` Y Y Y R E Y R E U Y E R Y Y R Y Y E Y R W E Y Y E E Y E 2 E 4 Y E Y Y Y Y ' ",
"E E R Y E ' Y Y R Y E Y R Y E R Y E Y Y 4 Y Y E Y E Y Y R R ' Y Y Y Y E ` E E E Y R ` R E Y E E E ` Y ' Y ` E Y E E Y 4 E Y Y ' ",
"` E E E Y Y Y Y 4 E E R 4 E 4 R R E Y Y E 4 Y Y Y Y E Y T Y Y T Y 4 R E U U E E E R E E Y Y Y Y E E E E Y Y E R Y E ` 4 Y Y E U ",
"E E Y E U U E Y E R Y Y E E Y Y E ` Y Y Y E E Y Y 4 4 E E E E @.=.-.-.' ( Y E U E Y ` R E R Y R Y W E E ' R Y R R 4 E E E E Y ` ",
"E E R E ' Y W E Y Y Y Y U Y E ` Y ` Y Y Y Y 4 Y Y U Y W ] #.$.| N N N | $.#.[ ( E E Y E Y Y E ` E E E E Y ` E ` E Y Y E E ` E E ",
"Y E R E R Y U 4 E E E ` E 4 E E ` ` ` Y Y E U U ` Y W &.X.N N M j j j M M M M X.-.] E E 4 R E E ' Y Y Y U ` ` E Y ' E E E Y Y E ",
"R E R Y R Y U Y Y U U Y U E E E R R E Y E R E Y Y ' #.N b k s f g g s s s s s k N | @.{ ` ' Y E E E E 4 E E E ` ' E E Y ` 4 E Y ",
"E E E R W E U Y Y E Y E U E Y Y R E Y Y Y U U n ` @.n n a q q q q 3 q q p a q ; > p M / X.` E R E Y E E U ` E E Y E E E Y E E Y ",
"Y E E Y Y E Y R E Y E E Y Y E Y Y E E R E ` R ] N 0 < q q p p p p p p p p p < < > < p p g @.` E Y ' E E E 4 E E E E 4 Y Y Y Y E ",
"Y E ` E U ` Y ` ' Y Y Y E Y ' E R R U R E W ] ! q q q q p p p e p p p p p > > > < > p p g / O.R Y E E E E Y E E E E Y Y ` E Y Y ",
"Y E ' E R E E R Y Y ` U E E Y E Y W E E E W _ 1 < q q q q q q q q q q q p > : > > > > > p g #.{ ' R Y E E E E Y E E E E E Y E E ",
"E E Y Y ` E R Y E Y Y E ( @.@.@.X._ X.| X.$.b < < < < < q q q q q q q < < : - > p p < 9 p g U O.' ` ' E Y Y E E Y E Y Y Y Y E Y ",
"Y E Y E E E E E ` ' W { @.b n n s s s n b n : - = - > > q < q q q q < < > = ; > > q < q q q p g [ ( Y Y E E E E Y Y Y E U Y Y ` ",
"Y E E ` E R Y ` U W E $.n e a e s s s s f q - - & - ; < < q q q q q p > > - : < < q q < p q p p 5 [ E Y E E Y E Y E ' E Y E Y E ",
"E Y Y E R U U Y E Y ` $.n s e s s s s a s ; & & - $ 1 < > q q 3 q q q p > - > < q q q q q q q U n ) { W W E Y E E W E ` Y ` ' ' ",
"Y U E E W W Y E E U n @.n s s s e s s s s = $ & & - < < q q q p > q < > : - : > q q q < 3 9 q p n n &.E ` E E Y Y E E E ` E E E ",
"E E E Y Y E Y ' R E E E X.b e s a s s a q = = - : > 9 9 p 3 p < < < < < > : > < < q q q < < > < q n b o.E E E E Y E ` R E ` E E ",
"E ` E E ` E E E E E R U ( X.n s s q a q - @ - < > > > < q > > 9 > < < > : - : < q q q q < > q 3 < < s N ] E ' Y R E E E E E E E ",
"E E ` E E E E E E E Y E E E X.n a q e q & = > < p > < > : > : : > < < > > - = > < q < q q > > > < < < 1 [ R Y U U R E Y E E E Y ",
"E E E E ' Y E Y Y E E Y Y W ( @.s q q q - > < 0 q 9 > > - - : > > > > < > : : > < q p < < > > > - : - > ( ] Y E R E E E E ` U R ",
"E ' E ' Y ` E E E E E R E Y E E @.N e q < < < q 9 < < > ; ; : : : : 9 < > : : : < 3 q K.uXyXT > - - - : ( @.` E R Y E E Y Y Y E ",
"E E E ` ` ` { Y E ' E E R ` Y R ` [ ) n < < q q > 9 < < > > : - : : > > > > : > < q 3 cXMXsXK.! - & & - ~ ' E ` Y Y ' W ` U E ` ",
"W Y E E ' Y E ` E E E Y R ' E ' Y Y E =.N 1 < < > > > > > > : - > > > > > : : > q q ^ bXMXaX=.f = & & - _ { { R E R E E E E R W ",
"Y Y E E Y E W E ' R ' ' E ` E R U E E /.l.v < ; ; > - - > ; > > > > > > : > : > > q U uXpXyX=.d & & & - ) E R R E E E E E E ` R ",
"Y Y Y Y ` E E ` Y Y Y E E ' E Y E E [ '.'.j.0 ; ; - - - ; > > > 9 > > > : : : > > > : : : : = = $ - & $ [ { E R Y R Y ` ` Y U E ",
"E Y Y Y E ` E ` E E Y E Y R ` Y E E &.'.%X`.A 0 - - - - - - ; : > > > > > > > > < < p > < > - - * 1 1 - ] ' Y Y 4 R E ` Y E Y E ",
"` E W E 4 R E Y E E 4 Y R R E R E ( /.`.*X*X~.Z ; - : : - - - > > > : > > > > > p 9 9 r 9 8 $ o + $ 1 1 [ E W W R ` Y ` Y E Y E ",
"Y Y Y Y Y Y E E ' E Y 4 R E E [ /.&.*.`.%X*X*X^.v ; - ; < : > - > > : = = = : 9 w u D J J F t #     + & [ 4 W E E E Y E E E Y Y ",
"Y E E E R E ` E E Y E Y E E #.1X*X5X).`.=X:X:X-X~.G 6 $ - ; - : > * = = & o , h } q.r.i.d.2.I t + + . + { W Y Y Y ` ` ' E E ' ` ",
"4 E E E U ' Y Y Y E Y Y E E H.n.Y.6X*X_.%X:X>X*X:X{.a.V 8 - - ; : = = = & * g } t.s.s.d.3.3.0.v : [ + n ' ` Y E E E W E U Y Y E ",
"Y 2 E E Y Y E Y Y Y Y 2 4 E /.Y.|.#X;X~.=X*X:X:XwXeXeX1XZ.S ; $ = = = = o ~ pX .m } q.q.,.1.L v n ^ $ [ Y E Y E W E E E 4 E E Y ",
"Y Y Y E Y Y Y U Y 4 { E 2 4 /.}.qXqX$X~.=X*X:X>X=X`.1X1XdXdXJ.B , = = = = K.aXd @ @ $ $ 6 ; ; % 5 1 ( Y ` E E Y Y Y E Y E Y Y Y ",
"E Y E E ` E Y E 4 Y Y Y Y E J.@X#XE.G.XX*X:XwX:XC.1.D V Z ..Z.P.u.c 8 , f ].K.& X o X X X X X & a n ] 4 E R E Y Y U Y Y E E 4 E ",
"Y R Y Y W E U E E Y E Y Y d /.;XR.5.b.&X*X:X*X{.b.d.e.P e 6 6 u J w.a.H +.yX/ X X X X X   X @ e f.&.E Y 2 E E Y E Y U 4 E E Y R ",
"Y R E Y 4 E E ' Y 4 4 Y Y ' *.*XR.R.dX3X:X3X:X{.m.6.q.F V y u l c >.G.F.s.} w , & o X X & > +.a.s.j.U R Y E Y Y R Y E R 4 U Y Y ",
"4 R Y 2 E 4 Y Y U Y 4 Y ' E #.5X0X9XgX3X:X3XwX:X[.6.0.h % y C l D <.D.D.r.D w 9 8 ; w y N C l.g.4.%.E E 4 E Y Y U 4 4 Y E Y 2 Y ",
"Y R 2 4 4 U Y U R Y U Y Y 4 Y 1X0X9X9X$X;X:XwXwX:X~.C.Z.w.h.9.9.s.G.6X6Xs.z r w 9 w y h C ..I.B.y.f.4 R R U R Y U W E U R Y E R ",
"R R R Y E Y U 4 Y R Y Y R 4 { ].9XfX4XXX$X:XtXtXwX$Xv.r.e.2.2.v.&X9XhXfXN.K x x $ $ w h z H g.B.i.&.U U R U Y Y R ' 4 Y 4 Y R R ",
"Y R R Y Y E U E 2 U R Y 4 E ' /.hXrX7X!.$X:XwXtXfXtX&XD.v.c..X4XtXkXlXjXS.<.8.w.m y } x D <.B.y.u.E U 2 2 U 4 4 4 Y U U R Y Y R ",
"U Y U ` U U U R R Y Y E Y Y E @.9XrX;XQ.$X:XwXtXgXkXfXwXwXeXgXgXkXlXxXzX+Xs.t.9.P H H ,.a.d.r.y.u.U U { 4 Y U Y 4 4 Y U E R Y E ",
"E Y E Y E Y 2 E Y Y E 2 Y 4 Y ` '.8XD.F.=X:X:XrXtXkXkXkXjXlXjXfXlXxXnXlX8Xv.C.N.>.D G 2.c.c.g.r.| 4 Y Y 4 Y 4 U ' U 4 4 R E Y Y ",
"E ' 4 E E Y Y Y Y U E 4 Y U 4 E ] J.I.~.=X:X:XrXtXkXkXkXgXtX@X7XkXxXmXvX2XC.A.oXW.F.C.v.c.c.x.B.( Y Y Y Y Y 4 4 Y R 4 U 2 Y Y R ",
"Y Y E Y E Y U U Y Y Y * ' E E Y Y 4 o.).{.*X>X>XrXrXrX4X+Xn.n.4XhXzXmXvX1XB.x.OX4X7X+XS.M.s.N.g.E 4 U 4 Y 2 Y E 4 4 R E E 2 E 4 ",
"E E U Y ' ` Y U Y Y ` E 4 ' Y ` Y ` ) ^.{.-X>X>X>X4X,X|.n.E.2XfXjXzXnXzX1XV.y.A.@X2XOX!.C.s.B.f.n 4 4 E Y Y 4 Y 4 Y ' Y R Y E E ",
"Y Y Y Y E Y Y Y 4 E E Y ` Y Y E ` ` @.^.~.-X-X>X-X-X XT.+X9XrX4XdXnXnXhX1XU.9.:.D.T.T.C.c.t.M.f.E E Y Y E E Y Y Y Y Y Y ' Y Y E ",
"Y Y Y 4 E E Y 4 Y E Y ` Y 4 Y Y 4 R &.l.Q.}.-X-X X X#X[.2XdX2XD._.hXjXhX<XZ.q.:.b.N.b.d.s.9.h.o.Y Y Y Y 4 4 E Y E Y Y 4 Y E U 4 ",
"E 4 Y Y 2 4 4 Y 4 Y ` E E Y E E 4 Y $.l.m.}.}.}.|. X{.C.S._.C.a.l a.P.A.u.} 7.7.r.r.<.2.e...( T Y Y E Y 2 Y 4 4 E 4 Y U 4 E Y U ",
"Y Y E E ' E 4 4 Y Y Y ` ' E E ` E Y ~ j.m.{.}.}.|.}.D.1.G q.C.M.K z z l t x x c y.2.>.<.0.$.Y Y U E Y Y E 4 U E E Y U Y 4 Y Y ` ",
"4 E U Y Y 4 4 E 4 Y 4 Y E E E E Y E E %.1.~.}.}.{.}.b.G z >.x.A.V.i.7.c K } r t <.<.>.0...] Y Y 2 4 Y U E Y Y 4 E Y U Y Y Y 4 Y ",
"Y Y W Y E E 2 4 E Y Y Y 4 4 Y E E E Y j.L ^.{.=X{.{.b.b.A.y.:.y.9.>.>.c z i t l q.<.,.1.$.E ' W 4 Y Y Y Y Y E Y 4 E E E 4 Y E Y ",
"E Y ' U 2 Y Y E Y Y Y E Y E ` Y E Y 4 _ Z I z.~.[.!.b.{.6X2XW.A.B.i.i.} c } 8.H e.q.1.L / E Y E Y Y Y 4 E Y * E 4 E Y Y ' E ` Y ",
"Y E E W Y E Y E Y Y E ' Y R E Y Y U Y E v Z I 6.F.F.m.{.4X7X@X8XW.U.V.i.y.y.q.L q.I I Z d n Y E Y Y 4 4 4 E E E U E Y Y ` Y Y Y ",
"Y E Y Y E Y E Y Y Y Y U Y Y Y ` E E E ' 5 v F 1.6.z.C.XX&XOXA.e.7.7.7.7.9.t.J S L F S e Y Y Y Y Y U Y E Y E Y 4 Y 4 ' 4 E E E E ",
"Y 4 Y Y Y Y Y Y Y R Y 4 Y 4 Y 4 E 4 Y Y 5 v v A 1.1.Z.%X2XOXN.;.z t c ;.9.8.C m m V e 0 4 W E U E E Y 4 4 E 4 Y W Y E Y W ` E E ",
"W Y 2 4 Y Y Y Y Y E Y Y E Y Y E E E R 4 U M v v L 1.z.%X6X5X2X`.P.g.r.i.M.p.S m m k % < ( Y E 4 4 U Y Y Y 4 Y Y Y Y Y Y Y Y E W ",
"E ' Y U 4 Y Y Y Y Y 4 E { E Y Y R E R Y R U v i B Z p.^.5X5XeX5X7X5X<XW._.g.S y y 0 & n Y 4 Y Y U 4 Y 4 Y Y Y Y Y Y 2 2 Y Y ' E ",
"E E ' E 4 Y E Y Y ` Y Y Y 4 E 4 Y 4 ` Y 4 Y 4 N 7 y v L z.S.)._._._._.A.a.S e w ; $ 5 E E W Y Y Y 4 4 4 U Y Y E E Y 4 4 Y ' Y Y ",
"E E Y Y 4 Y Y Y 4 Y Y Y Y Y E Y Y Y Y E E 4 R Y i 7 ; 0 v A L L w.u.0...m 0 0 ; + 1 W U W U 4 U Y 4 Y Y 4 Y Y Y E Y Y Y 2 ' 4 Y ",
"Y E ` E Y Y Y E R Y Y Y 4 Y E E Y Y Y Y Y Y 4 4 n N % # @ # $ % ; 8 r ; $ @ @ @ 4 4 E Y Y E Y 2 Y 4 Y ` Y Y E Y Y Y E E E E Y E ",
"Y Y E E Y Y Y Y Y E E Y E 4 Y Y E 4 4 E Y E 4 Y U n 1 & # + # . . . . . . . $ 1 ' 4 Y 4 Y Y 4 Y E Y Y 4 E Y U U Y Y R Y Y Y R Y ",
"E Y Y E E Y E 4 Y Y Y E E Y 4 4 Y E Y 4 Y ` R U Y Y R Y U Y U 4 4 1 1 2 2 3 Y U Y E E E 4 4 Y Y Y 4 Y E 4 4 Y Y Y Y Y Y U R E 4 ",
"E E 4 ' Y 4 Y E E 4 Y Y 4 Y E 4 Y Y Y 4 Y R R Y ` U R E Y Y U 4 E 2 U Y Y E U Y E 4 Y ' Y Y Y 4 Y Y Y Y ' E U Y Y Y Y E Y R E ' ",
"Y Y Y Y ' Y Y Y Y Y Y Y Y Y E Y Y Y Y Y Y Y Y Y R R 4 Y R W Y U E 4 W Y Y 4 Y U Y Y 4 Y 4 4 E 4 Y Y Y ' E Y Y E 4 Y E Y Y Y Y Y ",
"Y E Y Y E Y Y 4 Y Y Y Y Y Y 4 Y Y 4 4 4 Y U U Y Y U Y Y Y R ` R R U Y R R R R 2 4 Y Y E Y E Y Y 4 Y Y 4 Y Y R Y 4 E E 4 E Y Y E "
};
