/* XPM */
static char *result[] = {
/* columns rows colors chars-per-pixel */
"64 64 243 2 ",
"   c #040404",
".  c #0B0B0B",
"X  c #0B0708",
"o  c #120B0D",
"O  c #11110F",
"+  c #0F0E11",
"@  c #1C0D11",
"#  c #130F10",
"$  c #141414",
"%  c #1C1316",
"&  c #1C161A",
"*  c #1B1B1B",
"=  c #191916",
"-  c #220B17",
";  c #231117",
":  c #24141A",
">  c #2A151C",
",  c #251A1D",
"<  c #291B1F",
"1  c #3A0F19",
"2  c #1F2018",
"3  c #23231D",
"4  c #29271E",
"5  c #1C1924",
"6  c #2B1224",
"7  c #2E1C22",
"8  c #261829",
"9  c #321D24",
"0  c #311A28",
"q  c #271A37",
"w  c #361B33",
"e  c #260C21",
"r  c #242424",
"t  c #2A2C24",
"y  c #2B2B2B",
"u  c #292429",
"i  c #312226",
"p  c #34252A",
"a  c #39242C",
"s  c #33332C",
"d  c #393429",
"f  c #2B2636",
"g  c #362937",
"h  c #333333",
"j  c #3B3A35",
"k  c #34333B",
"l  c #3D3D3D",
"z  c #383534",
"x  c #2F302A",
"c  c #780F1D",
"v  c #4E1D39",
"b  c #721A2E",
"n  c #433D26",
"m  c #442739",
"M  c #443A37",
"N  c #562C3A",
"B  c #4B442D",
"V  c #474339",
"C  c #2C1C49",
"Z  c #321C52",
"A  c #3C2941",
"S  c #38274A",
"D  c #363442",
"F  c #3C3B43",
"G  c #3B3848",
"H  c #372757",
"J  c #3E3758",
"K  c #3D2E66",
"L  c #511C40",
"P  c #701D4D",
"I  c #4A2843",
"U  c #423C4C",
"Y  c #463748",
"T  c #43385B",
"R  c #4F3358",
"E  c #6D3551",
"W  c #471D60",
"Q  c #49377A",
"!  c #66326A",
"~  c #3E4141",
"^  c #444444",
"/  c #43424C",
"(  c #444C4B",
")  c #4B4B4B",
"_  c #484946",
"`  c #554748",
"'  c #49514E",
"]  c #54524C",
"[  c #454353",
"{  c #494453",
"}  c #4B4C52",
"|  c #484958",
" . c #514C5E",
".. c #4B5552",
"X. c #4B545D",
"o. c #4B5856",
"O. c #535353",
"+. c #5C5A56",
"@. c #555D5C",
"#. c #5C5C5C",
"$. c #55545A",
"%. c #655C5A",
"&. c #705550",
"*. c #56615D",
"=. c #5C605F",
"-. c #61615E",
";. c #69665C",
":. c #736856",
">. c #4E5962",
",. c #4E5963",
"<. c #535C65",
"1. c #5B5C64",
"2. c #545E69",
"3. c #595968",
"4. c #595574",
"5. c #4D4B67",
"6. c #605162",
"7. c #546363",
"8. c #5C6463",
"9. c #56626A",
"0. c #5A636C",
"q. c #5A6A66",
"w. c #546372",
"e. c #5B6571",
"r. c #5C6C73",
"t. c #58677A",
"y. c #5F7278",
"u. c #636363",
"i. c #636966",
"p. c #636C6A",
"a. c #6C6C6C",
"s. c #66666A",
"d. c #67716E",
"f. c #71706C",
"g. c #77726A",
"h. c #636A75",
"j. c #6C6D76",
"k. c #686678",
"l. c #64747B",
"z. c #697677",
"x. c #737373",
"c. c #73747C",
"v. c #7B7C7B",
"b. c #7A7777",
"n. c #766A70",
"m. c #93142A",
"M. c #CF6335",
"N. c #951842",
"B. c #912E4D",
"V. c #B32350",
"C. c #B92F66",
"Z. c #E43F62",
"A. c #DA3D55",
"S. c #886765",
"D. c #8B7777",
"F. c #946F67",
"G. c #96665E",
"H. c #D14D6D",
"J. c #E85973",
"K. c #CC7070",
"L. c #E96E79",
"P. c #CD785E",
"I. c #84827E",
"U. c #D98D48",
"Y. c #EC977E",
"T. c #C7897D",
"R. c #E5912A",
"E. c #3F2C9B",
"W. c #3E2DA3",
"Q. c #49388D",
"!. c #6F3789",
"~. c #4534B3",
"^. c #686A84",
"/. c #657A80",
"(. c #6B7B87",
"). c #747584",
"_. c #7A7B85",
"`. c #7D7E89",
"'. c #767887",
"]. c #777B93",
"[. c #716E95",
"{. c #554AA7",
"}. c #5A5699",
"|. c #5850CA",
" X c #6C4CC6",
".X c #7D7EE3",
"XX c #7B6DCF",
"oX c #8C3688",
"OX c #A12B87",
"+X c #8D7E82",
"@X c #937E80",
"#X c #ED7C84",
"$X c #8479DD",
"%X c #788589",
"&X c #7D8796",
"*X c #7D84A8",
"=X c #838484",
"-X c #8C8D8C",
";X c #878589",
":X c #958B8A",
">X c #878994",
",X c #949494",
"<X c #9B9C9C",
"1X c #969899",
"2X c #94928F",
"3X c #A59A99",
"4X c #A8918A",
"5X c #9FA09F",
"6X c #A5A39A",
"7X c #858AAC",
"8X c #9B9AA7",
"9X c #8086BA",
"0X c #99A3A9",
"qX c #A4A4A4",
"wX c #ACACAC",
"eX c #A5A6A8",
"rX c #B4B4B4",
"tX c #BBBCBD",
"yX c #BAB9B6",
"uX c #A4AAB4",
"iX c #CB9387",
"pX c #CCAF93",
"aX c #CCB8AF",
"sX c #E7A489",
"dX c #CFC9B6",
"fX c #9BA8D9",
"gX c #BCBEC1",
"hX c #AFB9DE",
"jX c #999CE9",
"kX c #8F92E7",
"lX c #ACB2EC",
"zX c #8E99C1",
"xX c #BDC1C4",
"cX c #BFC4F1",
"vX c #C4C4C4",
"bX c #CBCBCB",
"nX c #C7C8C9",
"mX c #D6D6D5",
"MX c #DBD2C3",
"NX c #ECD7CB",
"BX c #F4F2CE",
"VX c #EFEFE9",
"CX c #C0C5F1",
/* pixels */
") ^ ^ ) ) ^ ^ ^ ^ ^ _ ) ^ ^ ^ ) V ^ O.) ^ ) ^ ^ ^ } ^ ^ ^ _ } ^ _ ) V ^ ) _ ^ ^ ^ ^ ^ ^ ^ ) ) ) ^ ^ _ ) ^ _ j ) F ) ^ ^ ^ ^ ^ O.",
") ) ^ ^ ) ..^ ^ ^ ^ ) ^ _ ^ ) ^ U _ ^ ^ F ^ ^ ) ^ _ _ ^ _ ^ O.^ U ^ ^ ) } ) _ ) ^ ) O.) ) ^ ) ) ) } ^ O.) ) ^ ^ ) ) ^ V } ^ ^ O.",
"O.) ) O.M ^ ^ ^ F ) ) ) U ) l _ _ ) ^ ^ ) j ^ ^ ^ ^ ) ^ _ ^ ^ _ ^ V ^ ) l ^ ) ) ) ^ ) ) ^ ^ ^ _ ) ) ) ) ^ ^ ) ^ ^ ) ) l ^ ^ ) ~ ",
") ) ^ ^ ^ ^ _ _ ) _ ^ ^ ) ) ^ ^ _ O._ ^ ) ) ) ^ ^ l l ) ) ) ^ ) ) ^ ^ F ^ ^ ) ~ ) ^ O.^ ) ^ _ ^ ^ _ ) ) O.) ^ ) ^ ~ ) ) O.) ^ ) ",
") ) ) ) O.^ ^ ) ^ ^ ^ ^ V ^ ) ) ^ O.^ ^ ^ ^ l ^ ^ ^ ^ ^ ^ _ _ ) ) ^ ) ) ^ ^ ^ ^ ) ) ) ) U _ ) O.O._ _ ) ^ O.} ) ) ^ ^ ) ) } _ ) ",
"^ ) _ ) ^ ^ ^ l ^ ) ) O._ l } _ O.} ) ^ ^ ) ^ l ) ^ l _ ^ O.) ^ ^ ^ ) ) ) ) O.^ ) ^ _ ) M _ ) ) O.^ ^ _ M } ] ) ^ $.) _ ) ^ ^ ) ",
"^ ) ) ^ ) ^ l ^ ^ ^ ^ ^ ^ ) ) ) ^ _ ) ^ ) _ ) ^ ) _ l U l ^ _ ^ ) O.^ ^ ) ^ ) ^ F _ ^ ) ) O.^ _ ^ ) _ F ) ) ) } O._ ) ^ ] U ) _ ",
") ) ) ^ ) ) F ^ ^ ) ^ ^ ~ ) ^ ^ _ _ ^ ^ ^ ~ ^ F l _ ) ^ ^ ^ ^ ^ ) ^ ^ ^ ) ^ ) l ^ ^ ^ ^ _ ) ) ^ ) _ ) ) ^ ) ) ) _ ) _ ) ^ _ ^ _ ",
"^ ) ) ^ _ ) ^ ) ) ^ ) ) ^ ^ ) ^ ^ ) l.4.e.{ | ).=X%X'.;X(.| O.} F O.N S.S.S.S.F.&.M ` S.G.S.$.) _ O.} _ _ ^ ) _ ) ) l ^ ^ _ ^ ) ",
"^ ) ) ) V } ^ ) O.^ ^ ^ ) ^ O.) _ O.k.3.5.U 5.zXhXfXfXhXfX[._.j.a.I.F.iXiXK.K.T.G.Y V N ` &.+._ ^ ) ) ) ) ^ ) ) ) ) ^ ) ) ) ^ ^ ",
"^ ) O.) / ) ) ) ^ ^ ) ^ ) ) ^ ) ^ $.d.v.-X;X>X7X7X7X9X7X*X>X%X+X_.;X-X;X+X+X+X+Xb.s.f.a.x.a.#...O.^ M ) ) _ ) ^ ) ) ) ) _ ^ ) ) ",
"_ } _ ^ ) ) ) ^ ) ^ ^ ) ) ) ^ ^ x.<X<X>X'.'.).k.^.^.^.^.^.t.h.j.j.j.x.x.x.f.x.x.f.a.u.1.8.s.a.#.) ..O.} ^ _ ) ) ^ ^ ^ ^ ^ ^ ) ^ ",
"_ ) ^ ) ) ) ) ) ) O._ ) ^ ^ ^ #.eX1X&X%Xt./.y.w.t.^.w.}.w.2.>.<.3.9.0.0.9.7.*.*.*.<.2.>.2.9.q.q.O.) ^ ^ _ ) ) ) ^ ^ ^ ) U ^ _ ) ",
"^ ) ) ) ) ^ ^ ) ^ ) ^ ^ ^ l ) qXuX(.w.w.w.w.w.w.2.>.w.~ X.>.>.X.,.X.X.o.( ( ( ( ( ) ' X.o.o.q.q.0.+.) ^ } ) ^ ) ^ O.) O._ _ ^ ) ",
") ^ ) ) ^ ^ ^ ^ ) ^ _ ^ ' @.1XxX(.w.w.w.w.w.w.>.>.X.~ w.X.>.>.X.X.X.' ' ^ ^ ) ^ _ ^ _ ( ' ..o.7.l.i.u._ ) O.^ O.) ) ) ) ^ ) O.O.",
"^ l ) ) ) ^ ^ ^ _ ^ _ ) -.c.xX&Xy.0.0.0.9.9.7.>.>.X.X.X.X.X.X.X.X.' ( ( ^ ^ ^ ^ ^ ^ ^ ^ _ ) ( ..q.p.f.} O.) ^ -.^ ^ ) ) O.) ) _ ",
") ) ) ^ ^ ^ ^ O._ ) ) ] ,XwX0X/.y.w.0.9.<.<.X.X.X.>.9.w.>.>.r.r.d.*.*...=.*.( ^ ~ ^ ~ V ~ ^ ~ ~ ..q.*.=.O.y r l ^ ) } ) ) ) O.^ ",
"^ O.) ) O.) ) O.) ) _ =X=XnX%Xl.r.e.9.0.<.<.X.X.9./.%Xr.>.<.z.z.z.=.*.o.d.d.o.' ^ ~ ^ ^ ~ ~ ~ ~ ( @.*.+.$.. $ h ) _ _ _ ) ) ) ) ",
") ) O.) ) #.#.#.O.) a.-XqX0Xy.r.9.0.0.0.0.<.,.X.r./././.l.y.l.l.z.*.x.z.d.d.( o.F V l F ~ j l l ~ ' o.^ #.x l ) ^ ^ +.) _ _ ) ^ ",
") ) ) ) x.=Xc.a.^ ) 1Xx.1X%Xw.r.r.0.9.0.0.9.X.X.h./.l.l.l.r.q.X.*...q.i.q.p.8.@.~ ~ ~ ~ l l ~ ~ ~ ~ ~ l ^ #.x.O.#.#.a.) ] ' U ) ",
") O.) O.j.3.| U _ v.I.x.p.9.| ( ~ f k k D G ~ ~ ,.<.3.0.@.$.} | ' ~ h h k k h j x h j k l j h h h h h y h @.8.) #.%.S.#.^ ^ ^ ) ",
") ) _ O._.9XJ k ~ -X=.^ F ^ @.<.9.2.0.h.h.h.l.e.<.<.0.0.0.0.9.3.s.s.3.2.3.3.3.$.x.x.a.p.i.p.q.s.d.q.~ z l ) %.~ h N G.%.O.l ) ) ",
"^ ^ ) ) O.U z z ) -X;Xa.eXbXbXbXnXbXbXbXnXvXnXtXz.8XrXtXgXxXvXvXgXgXgXgXrXeX>XqXvXvXxXtXvXnXvXnXbXbX2X' u.a.x.] _ ^ ) O.) _ _ ) ",
"_ ^ ) ) _ ) #.%XwXvXnXvXmXbXvXgXtXrXwXqX8X8X>X+X+X_.).'.'.'.'.`.`.`.`.'._.'.c.c._._._._.=X>X-X,X1X5X5X,X-Xv.wXtX1Xb.) ) ) ) O._ ",
"^ U V _ ) -.qXnXvXrXeX1X-Xc.s.s.0.3.3.$. . .X.| { | { { U { { [ U [ { | [ [ { { [ | [ { / U j k k h h M ^ ) u.x.<XbXf...] ~ V ( ",
"_ ^ ^ ~ +.=XnXrX5X-Xb.i.O.U F D D D D D D Y Y Y G G Y Y Y Y Y U J T J J U U Y Y U U U [ ^ ~ ~ l k h h y h j O.s.;.<X2X] ( ) ^ ) ",
"} ) ) ) s.bXaX6X1X;X%.s u / O.k r 5 8 8 i a g g C Z I I v N m S H K K H A N I N G J J J U U ^ ^ -.s.;.` ^ wXyXdXpXsXpX*.^ ) _ _ ",
"^ ^ _ ) 1XNXNXNXaXaXF.M #.#.#.l u 8 u m v b v H Q Q.Q.R E N.B.! Q.{.{.Q.! B.B.E Q.{.{.}.4.s.u.) O.a.=Xb.D.VXBXBXU.R.U.:...) ^ ^ ",
"^ ) ) v.6XMXdXaXsXT.K.f.~ ~ #.y ) O.E b A.A.A.!..XkX$XoXZ.J.J.OX$XjXkX XH.J.J.C.XXjXjX|.8XbXbXa.O.u.#.D.6XVXBXBXP.M.M.] #._ O.) ",
"V ) u.wXeXtXyX8X4X:X4X5X] ( O.3 -.$.` c Y.Y.J.! jXcXjX!.J.sX#XOXjXcXlX XH.sX#XC.$XlXlX|.8XmXmXu.#.#.^ :XyXVXdXdXT.&.I.V I.O._ ) ",
"~ l <XwX-Xf.>X*X%Xc.'.wXi.^ O.* . o - 1 c m.c C Q.~.W.W N.V.B.!.|.|. XQ.P N.N.P W.~.~.Q.5.$.O.j ^ -.O.v.mXxXrXmX<XI.-.t -Xs._ U ",
"^ O.wXwXD.+.I.uX^.k.[.&X1./ O.r $ o @ - 1 1 1 6 C Z Z K E E c.^.{.{.{.[.L L v C Z H Z Z g a u l l -.O.s.BXrXwXvX2X2XV 3 ^ f.V ^ ",
"' -.qXqX-X+.=.+X].].^.[.#._ ..5 X X o i a m a m A S g I R 6.k.k.).4.K Y C v 6 w g S g g w : % r j #.+.2X3X3X1X;X:X-Xr & $ t ~ ) ",
"V d.5XqX;Xf.-.a._.].[.>Xc.$.) = . X o @ @ - @ - @ e @ e 6 w f Z S Z w 8 e 6 - e 6 6 6 6 6 : & , z $.;X3XD.4Xn.<X-XO.$ . O * ^ ^ ",
"^ a.2X,X-X;Xv.s.x.c.).%Xf...) $ X X o ; > > ; : e : ; > 6 8 q q q q e 6 6 6 - e 6 6 > > : % @ @ h O.b.8X,Xb.a.x.f.^ $ + u * ^ ^ ",
"~ s.;X-X-X,Xx.j.%Xc.U k k h j r O . o : 7 7 i i 7 0 9 9 8 q q q C q q 0 9 0 0 0 p a a p , % % h u s r u.b.x.x.x.a.+.y ^ O.) j ^ ",
"^ a.f.f.x.a.s.a.1.Y D k ~ h y y O . . , i p p p p p p p y f f f f f 8 r i < , < i i i i % @ # 2 3 u s u.s.f.x.8.) l ) O.=.O.) ^ ",
"^ a.;.;.#.#.8.#.) D D f k r r r O . . % , , < < 7 , 7 , 8 8 8 5 5 5 5 5 , * % , , , , , ; % % 5 r r ) u.i.s.O.* y ~ ) +.u.+.) ) ",
"V ] B n n z O.O.) / D D ~ y r $ = = = = : : > > > > : : & 5 5 5 5 5 & & = * & , , > : , , : & = * r O.u.-.^ s X r ^ } #.u.O.^ ) ",
"~ M B M n B z ) ) ~ ^ F k r r O X . $ % % ; ; - - : @ $ + . + + + + $ $ $ $ % % ; : , , , % . X * r ^ ) ) ^ *   r ^ ] O.#.#.^ ) ",
") ] g.=Xx.+.V _ ~ ~ h y r y 3 .     + $ $ $ = + + $ + $ + $ $ $ % : : : : > > > > > , : % +     $ r y y l l 5   * j h y ) =.^ ^ ",
"_ +.g.I.x.=.#.) l y * $ + r r .   X * = * = * * * $ = = $ = & & % % : : : : > 7 > > , : % +     = y = . $ = r   + y h h *.;.^ _ ",
"V V B B V V ^ z r 3 r r * r r +     + O + $ $ $ + O $ $ $ $ $ = $ & & $ & & & * % & % $ $ .   . * y = $ $ $ = $ . * O.I.x.;.O.l ",
") V B B d 4 * * * * * $ $ r r $   . * r r u y y h h h k h h h h h z h h z h h k h y y r 3 $ O * 5 y h r $ $ x s.I.;X<X<Xf.+.) ) ",
"V j B d t , = O + $ + 3 r r r $   + = r r t y y h h h h h h h h h h h y h x y y y y r r * $ . + = y h h r $ 8.-XrXqXwX-XO._ _ _ ",
"( t B j 4 2 $ $ . . * r r r r .     . . + $ $ = = $ $ = = & = * $ & = $ = $ $ $ $ . + + .       = y r y y 5 j x.O.) l l V ] ^ M ",
"_ 3 s s t t t * $ * r * O * r $ + $ = = $ $ & $ $ = * * * * * * * * * * * * = $ * = = $ * $ $ O * y * * y y y y h z F l M ) ) ^ ",
"~ r 4 x t x r t * * * $ O * r + . + . O + + + . . X . . + . $ . + + . + . . . . X X . X . . + . $ y r $ 3 r r h j 2 M j V V ) } ",
"^ r O 4 t $ _ ..z = +   + $ * +                                                                 $ r * $ $ * r ( _ h r M d z ^ ^ ",
"F r   $ * $ r z 2 O . . . O * .                                                                 + * $ $ $ $ $ y y 2 s M & s O._ ",
"' y     + O O $ . X   X . + + .                                                             .   . $ $ $ O O $ * y x z 2 . j ) ^ ",
"_ h   X . + . .                                                                   X .     .   X   $ . + . + $ = 3 t t $ . z ^ ^ ",
"^ ^ .     X   X                                                                                   .   .   + $ = * = . . $ M ) ) ",
"^ ~ =                           X                                                         X . . . . X . . + . X         $ _ ) ) ",
") ^ y .                                       X       X     X                   X       X                           X . j ^ ) ) ",
") O.^ j * = u r r r r y y y r r * y y r * r * r * r r r r y y * * r r * y r u r y 5 y x y y x t h r y y y y x y y r y j ^ ~ O.) ",
"_ _ O.) l ^ ) ^ ^ ) U _ ^ l ) l ^ F ) _ l ^ j ~ ~ V ^ ^ F ) ^ ) ) ) ^ F ^ ^ ) ^ _ ~ ^ ) ) ^ ^ ^ ^ ~ l l ~ _ ~ _ _ _ l l ^ ] ^ ^ ",
") ) ^ ) l ^ ) ^ l ^ ^ ^ ^ _ ) V _ ^ ^ ) _ l _ / h j U _ l ) j ^ ) ^ ^ ) ^ O.^ ~ V ^ _ ~ ^ ^ ~ F ^ ~ ~ V l ^ ^ ^ ) / ^ ^ k O.~ ^ ",
"^ ) ) ) ^ ^ ^ ) ^ ) ^ ^ F ^ _ ) ^ ^ ^ ^ ^ ^ l l l _ ^ ^ z ) ^ ^ ^ l ^ ) ^ ^ ^ ^ ) U ) ^ ^ ) ^ j F V ^ ] ^ ^ ) / ^ ^ _ ) ) ) ^ ) ",
"_ ^ ) ) ^ ^ ^ ^ ^ ) _ ^ ) l ^ ^ _ F V _ ^ ) F V ~ ^ l ^ l ~ ) ^ ^ j l _ ^ j ^ l } ^ ^ j ^ ^ l ^ _ / ~ U ) ^ V F ^ ^ _ ^ ^ ^ _ ^ ",
") U ^ _ _ _ ) j ^ U ^ ^ _ ^ l ~ ^ ) ^ F ^ } ( M ^ ^ _ ^ ~ ^ ^ ^ ) F ~ ) ^ l ^ ^ ^ ) ) _ l l ^ ^ ^ l ~ ) ~ j ^ ^ ^ ^ ^ V F ^ ) l ",
"^ O.l ] _ l U _ _ ^ ^ ^ l ^ ) l ^ ^ ^ l ^ ) ^ ^ ) ^ _ ) ^ ^ ^ l ) j l ^ ) ) F ^ ) l ^ O.^ ^ ^ F _ ^ ) ^ O._ ^ ^ ^ ^ ^ ) _ _ ) O.",
"^ ^ ^ _ ..^ ^ ^ _ ^ ^ _ ^ ~ ) ^ ^ ^ ^ _ ^ ^ _ ^ _ ) F ^ _ ) ^ ^ ) l ) ^ ^ l ^ V _ ^ l ^ l l ) j ^ ^ ^ ) ) / ^ ) l ^ ) _ ^ ^ ^ ^ ",
"^ ) ^ ^ _ ^ _ F V ^ _ ^ ^ ^ l ^ ^ ~ j F ~ V F ^ ^ l ^ ^ ^ ) ) ^ _ ^ ^ ^ ) _ ^ k l ^ ^ ) ^ ) ^ ) l ^ ^ l ^ ^ _ ^ l ) ) F ) ^ ^ ) "
};
